Coordinates
version=1
nRows=9
nColumns=36
inDegrees=yes

Units are S.I. units (second, meters, Newtons, ...)
If the header above contains a line with 'inDegrees', this indicates whether rotational values are in degrees (yes) or radians (no).

endheader
time	pelvis_tilt	pelvis_list	pelvis_rotation	pelvis_tx	pelvis_ty	pelvis_tz	hip_flexion_r	hip_adduction_r	hip_rotation_r	knee_angle_r	knee_angle_r_beta	ankle_angle_r	subtalar_angle_r	mtp_angle_r	hip_flexion_l	hip_adduction_l	hip_rotation_l	knee_angle_l	knee_angle_l_beta	ankle_angle_l	subtalar_angle_l	mtp_angle_l	lumbar_extension	lumbar_bending	lumbar_rotation	arm_flex_r	arm_add_r	arm_rot_r	elbow_flex_r	pro_sup_r	arm_flex_l	arm_add_l	arm_rot_l	elbow_flex_l	pro_sup_l
      2.95000000	     -0.66233228	      3.56450907	      3.16920725	      0.13167728	      0.97334978	      0.03276671	      3.55626478	      2.59476528	      4.24491731	     11.97521338	      0.20900690	     17.93694948	      0.43553697	     -7.49999987	     32.85642090	     -0.92383671	      4.22153987	     52.56947159	      0.91751037	     12.22384205	    -12.79493498	     -7.49999987	      2.77949907	      0.19864302	      2.67040832	     52.99329278	     16.91030801	     50.01757239	    142.41385017	     95.30074163	     74.08988354	     14.52676141	     70.97108266	    103.85746630	     68.94386963
      2.96666670	      0.04655326	      3.95189482	      2.99613340	      0.13761681	      0.97483729	      0.03275597	      2.63176640	      2.17192550	      3.79934934	     11.83986220	      0.20664458	     17.02500147	      1.16775176	     -7.49999987	     33.21237712	     -0.41126541	      3.77123054	     51.54161380	      0.89957086	     11.73363577	    -12.33784539	     -7.49999987	      1.91626550	      0.12840828	      2.82688285	     52.50150285	     16.18045662	     47.71082847	    141.15298388	     95.02609329	     74.05017028	     14.75174658	     70.73154856	    104.56432559	     68.99113088
      2.98333330	     -0.26065346	      4.36797406	      2.72374483	      0.13342843	      0.97855919	      0.03558552	      3.01240120	      1.89278953	      4.44661915	     11.83884568	      0.20662684	     15.87610691	      0.18310926	     -7.49999987	     34.42257461	     -0.03599188	      3.28177005	     49.46018853	      0.86324314	     11.19417985	    -11.75724497	     -7.49999987	      2.31847708	     -0.29553889	      3.33379905	     52.77656006	     16.66220793	     49.74945314	    142.09480222	     97.33823828	     73.55075140	     15.26136975	     71.36522536	    105.88598943	     69.39223361
      3.00000000	     -0.08287358	      4.53985022	      2.32957732	      0.13256231	      0.97452594	      0.03589225	      2.95122217	      1.76683200	      4.71770992	     11.90992795	      0.20786746	     15.29130031	      0.00810043	     -7.49999987	     35.11624081	      0.02288510	      3.03578608	     46.99494034	      0.82021644	     11.01304811	    -11.22000937	     -7.49999987	      2.01950174	     -0.25988273	      3.23798050	     53.61630145	     16.86452749	     49.07253247	    141.97369216	     95.69519974	     74.07239496	     14.57619379	     70.80454619	    105.94997567	     69.00519978
      3.01666670	      0.02523117	      4.71899812	      1.90363520	      0.12826692	      0.97292589	      0.03631992	      3.43204805	      1.68236549	      4.99686009	     12.36666072	      0.21583895	     14.59504911	     -0.84483859	     -7.49999987	     35.94411702	      0.10260466	      2.77413579	     44.02524721	      0.76838552	     10.40728579	    -11.35133081	     -7.49999987	      1.79857824	     -0.34078242	      3.16485803	     54.45368839	     17.12729704	     49.44178761	    142.61323142	     98.75886535	     74.43672018	     14.49383535	     70.51989712	    106.06261881	     69.89345237
      3.03333330	     -0.14833742	      4.58087266	      1.79834800	      0.12766051	      0.97235812	      0.03617019	      4.27722828	      1.87158742	      5.02553986	     12.79335659	      0.22328619	     13.81920372	     -1.61275623	     -7.49999987	     36.92388649	     -0.00368113	      2.83971880	     40.52010654	      0.70720927	      9.90381538	    -11.15575992	     -7.49999987	      1.72824751	      0.00902951	      2.92252791	     55.64810659	     17.27389565	     49.44887138	    143.11507179	     97.90760320	     74.97183914	     14.15828472	     70.12280094	    106.44336132	     69.94479335
      3.05000000	     -0.13941868	      4.57670956	      1.77469052	      0.12806030	      0.97507080	      0.03745885	      4.68684439	      1.95030740	      5.30019919	     12.75545282	      0.22262465	     12.98624369	     -2.52298545	     -7.49999987	     37.15797449	     -0.01639064	      3.00068982	     36.57277006	      0.63831525	      8.24890548	    -11.56070941	     -7.49999987	      1.48708391	      0.13631319	      2.90700502	     56.71746258	     17.27332754	     49.39413336	    143.83085479	     97.94473104	     75.57716859	     14.11901512	     70.05306438	    105.66537653	     70.24112420
      3.06666670	     -0.52283112	      4.52904380	      1.75839661	      0.12975815	      0.97798155	      0.03781908	      5.16656335	      2.04378406	      5.48373964	     12.39809454	      0.21638757	     12.78338124	     -3.05982162	     -7.49999987	     37.59984823	     -0.02659226	      3.32669046	     32.52447088	      0.56765910	      8.24939231	    -10.24209824	     -7.49999987	      1.71838269	      0.38725088	      2.95872483	     57.57267135	     17.52273092	     51.42342124	    144.98458943	     97.33980026	     75.54193107	     14.22757812	     70.17208740	    105.84093052	     70.40196907
      3.08333330	     -0.56599018	      4.56103737	      1.90916311	      0.12912700	      0.97867733	      0.03876764	      5.24613598	      2.01718581	      5.38897217	     11.91620023	      0.20797693	     12.87158280	     -2.80737312	     -7.49999987	     37.50917018	      0.01619261	      3.48943172	     28.62448167	      0.49959145	      7.02439255	     -9.91852058	     -7.49999987	      1.42415714	      0.51309034	      3.01865145	     58.14797882	     17.71105140	     53.24498701	    145.56353564	    100.98620238	     75.54652559	     14.52257378	     70.27228460	    106.23946452	     71.26696565
